<svg xmlns="http://www.w3.org/2000/svg" xmlns:xlink="http://www.w3.org/1999/xlink" width="162px" height="54px" viewBox="0 0 162 54"><title>Download_on_the_App_Store_US</title><g id="Page-1" stroke="none" stroke-width="1" fill="none" fill-rule="evenodd"><g id="Download_on_the_App_Store_US" transform="translate(0.000000, -0.000130)" fill-rule="nonzero"><g id="Group"><g id="Path"><path d="M148.681456,1.35828407e-16 L12.8717762,1.35828407e-16 C12.3767328,1.35828407e-16 11.8876294,1.35828407e-16 11.3938955,0.00287549065 C10.9805943,0.00557548188 10.5705871,0.0134189564 10.153317,0.0200204349 C9.24681342,0.0306878351 8.34244162,0.110438092 7.44806079,0.25857816 C6.55493621,0.409943215 5.68978941,0.69530949 4.88188113,1.10502541 C4.07496096,1.51820738 3.33765493,2.05509499 2.69671074,2.69621124 C2.0524017,3.3355246 1.51532037,4.07448437 1.10611891,4.88467562 C0.695788065,5.69325431 0.411263336,6.55972088 0.262371647,7.45414927 C0.112064406,8.34744799 0.0311827125,9.25104817 0.0204524335,10.1568405 C0.00792447425,10.5707491 0.00660147855,10.9860348 0,11.3999975 L0,42.604147 C0.00660147855,43.0233207 0.00792447425,43.4293994 0.0204524335,43.848708 C0.031186003,44.7544554 0.112067698,45.6580104 0.262371647,46.5512642 C0.410852201,47.4462155 0.695393753,48.3131795 1.10611891,49.1220609 C1.51513457,49.9296321 2.05229143,50.6656002 2.69671074,51.3013588 C3.33522467,51.9453256 4.07300728,52.4825785 4.88188113,52.8925986 C5.68978327,53.3034111 6.5548368,53.5904759 7.44806079,53.7441758 C8.34259367,53.8911292 9.24687245,53.9709119 10.153317,53.9828551 C10.5705871,53.992035 10.9805943,53.9973 11.3938955,53.9973 C11.8876159,54 12.3767598,54 12.8717762,54 L148.681456,54 C149.166645,54 149.659663,54 150.144852,53.9973 C150.556195,53.9973 150.978069,53.992035 151.389412,53.9828551 C152.294143,53.9715471 153.19672,53.8917593 154.089404,53.7441758 C154.985509,53.5893939 155.853664,53.3024051 156.665465,52.8925986 C157.47361,52.4823411 158.210711,51.9451029 158.848678,51.3013588 C159.491435,50.6631103 160.029739,49.9276805 160.443833,49.1220609 C160.851476,48.312591 161.133309,47.4456964 161.279615,46.5512642 C161.43016,45.6578879 161.513912,44.7545338 161.530175,43.848708 C161.53544,43.4293994 161.53544,43.0233207 161.53544,42.604147 C161.545969,42.1136936 161.545969,41.6259402 161.545969,41.1275218 L161.545969,12.8739092 C161.545969,12.3795273 161.545969,11.8891009 161.53544,11.3999975 C161.53544,10.9860348 161.53544,10.5707491 161.530175,10.1567865 C161.513915,9.25091574 161.430163,8.34751653 161.279615,7.45409527 C161.132901,6.56018434 160.851085,5.69378642 160.443833,4.88462162 C159.610514,3.26067961 158.28911,1.93880349 156.665465,1.10490391 C155.853662,0.696189201 154.985414,0.410898718 154.089404,0.25845666 C153.196874,0.109663901 152.294204,0.0298858855 151.389412,0.0198314355 C150.978069,0.013243457 150.556195,0.00533248267 150.144852,0.00269999123 C149.659663,1.35828407e-16 149.166645,1.35828407e-16 148.681456,1.35828407e-16 L148.681456,1.35828407e-16 Z" fill="#A6A6A6"></path><path d="M11.4004834,52.8187538 C10.9891668,52.8187538 10.5877861,52.8134889 10.1796959,52.8043089 C9.33430406,52.7932939 8.49088809,52.719698 7.65636512,52.5841246 C6.87821455,52.4501081 6.12439583,52.2008129 5.41977339,51.844462 C4.72161196,51.4910638 4.08483261,51.027678 3.53382952,50.4720565 C2.97485077,49.9229798 2.50947543,49.2861447 2.15614549,48.5867876 C1.79892215,47.8828852 1.55170235,47.1283868 1.42309787,46.3495749 C1.28421621,45.5127327 1.20907547,44.6665532 1.19832361,43.8183331 C1.18976463,43.533619 1.17855967,42.5856521 1.17855967,42.5856521 L1.17855967,11.3999975 C1.17855967,11.3999975 1.19049363,10.466597 1.19839111,10.1923724 C1.20868594,9.34549589 1.28338973,8.50062955 1.42185588,7.66508609 C1.55069774,6.88414073 1.79810893,6.12746656 2.15552449,5.42125838 C2.50755586,4.72238435 2.97034753,4.08507362 3.52595904,3.53403201 C4.08094606,2.97775474 4.71976234,2.5119829 5.41911189,2.153702 C6.1221149,1.79849602 6.87450901,1.5509594 7.65108663,1.41938539 C8.48835031,1.28245012 9.33469429,1.20841629 10.1830169,1.19790511 L11.4011449,1.18142166 L150.138237,1.18142166 L151.370918,1.1985666 C152.211524,1.20855549 153.050179,1.28192884 153.879749,1.41806239 C154.664189,1.5512868 155.424424,1.80055062 156.135457,2.15765749 C157.536507,2.87969731 158.676515,4.02203241 159.395696,5.42455237 C159.747407,6.1258853 159.991002,6.87638727 160.118214,7.65058714 C160.258329,8.49298626 160.336747,9.34449189 160.352843,10.1983124 C160.356758,10.5806311 160.356758,10.9912998 160.356758,11.3999975 C160.367423,11.9062458 160.367423,12.3880997 160.367423,12.8739092 L160.367423,41.1275218 C160.367423,41.6179752 160.367423,42.0965487 160.356758,42.5790371 C160.356758,43.0180557 160.356758,43.4202194 160.351493,43.834128 C160.335746,44.6727125 160.258635,45.5090193 160.120779,46.3363449 C159.994811,47.1207749 159.748937,47.8811626 159.391781,48.5908376 C159.035954,49.2826039 158.573251,49.9139226 158.020726,50.4615265 C157.469227,51.0201339 156.831324,51.4862308 156.131542,51.841897 C155.422479,52.2009873 154.663362,52.4512044 153.879749,52.5841246 C153.04529,52.7204215 152.201793,52.7940221 151.356338,52.8043089 C150.960924,52.8134889 150.54688,52.8187538 150.144852,52.8187538 L148.681456,52.8214538 L11.4004834,52.8187538 Z" fill="#000000"></path></g><g id="_Group_" transform="translate(13.461572, 11.772502)" fill="#FFFFFF"><g id="_Group_3" transform="translate(0.000000, 0.000000)"><path d="M19.976307,15.6335027 C20.0058139,13.3432744 21.206481,11.2278003 23.1576527,10.0282399 C21.9211548,8.26230089 19.9243485,7.18279793 17.7696042,7.11538138 C15.5026376,6.87743115 13.3049122,8.47189747 12.1497075,8.47189747 C10.9721468,8.47189747 9.19352758,7.1390063 7.2782483,7.17841267 C4.75824019,7.25982877 2.46586113,8.65786676 1.23982593,10.8610252 C-1.37106559,15.3813775 0.576424582,22.0247734 3.07743995,25.678685 C4.32875089,27.4679017 5.79117413,29.4665027 7.70472542,29.395628 C9.57725033,29.3179627 10.2766021,28.2015838 12.5368997,28.2015838 C14.7762184,28.2015838 15.4323568,29.395628 17.384734,29.3505651 C19.3940404,29.3179492 20.6599988,27.553397 21.8674079,25.7472378 C22.7664727,24.4723556 23.4583017,23.0633331 23.9172682,21.5723629 C21.5308224,20.5630134 19.9790924,18.2246226 19.976307,15.6335027 L19.976307,15.6335027 Z" id="_Path_"></path><path d="M16.2886185,4.71232168 C17.3841759,3.39714503 17.9239154,1.70670827 17.7932156,-2.39807394e-15 C16.1194476,0.175797087 14.5733549,0.97574939 13.4629967,2.24046622 C12.366569,3.48827935 11.8111213,5.12075297 11.9189932,6.77832797 C13.6152044,6.79579255 15.2257212,6.03432273 16.2886185,4.71232168 L16.2886185,4.71232168 Z" id="_Path_2"></path></g><g id="Group" transform="translate(33.015091, 12.353499)"><path d="M10.6312154,12.5125828 L4.24114622,12.5125828 L2.7065792,17.0437756 L9.59229576e-15,17.0437756 L6.05257033,0.279530092 L8.86461119,0.279530092 L14.9171815,17.0437756 L12.164446,17.0437756 L10.6312154,12.5125828 Z M4.90295457,10.4216691 L9.9681381,10.4216691 L7.47117272,3.06787853 L7.40129695,3.06787853 L4.90295457,10.4216691 Z" id="Shape"></path><path d="M27.988676,10.933196 C27.988676,14.7313816 25.9557716,17.1716472 22.8879606,17.1716472 C21.3022359,17.2545972 19.8085699,16.4240341 19.0423226,15.0332541 L18.9842728,15.0332541 L18.9842728,21.0871475 L16.475441,21.0871475 L16.475441,4.82129333 L18.9038941,4.82129333 L18.9038941,6.85419772 L18.9500369,6.85419772 C19.7503255,5.4721369 21.2456022,4.64193134 22.8418178,4.69340825 C25.9438512,4.69342175 27.988676,7.14555378 27.988676,10.933196 Z M25.4099684,10.933196 C25.4099684,8.45865401 24.1311581,6.8317878 22.1799959,6.8317878 C20.2631101,6.8317878 18.9737563,8.4929169 18.9737563,10.933196 C18.9737563,13.395885 20.2631101,15.0451476 22.1799959,15.0451476 C24.1311716,15.0451476 25.4099684,13.4301614 25.4099684,10.933196 Z" id="Shape"></path><path d="M41.4411663,10.933196 C41.4411663,14.7313816 39.4082619,17.1716472 36.3404509,17.1716472 C34.7547262,17.2545972 33.2610601,16.4240341 32.4948129,15.0332541 L32.4367631,15.0332541 L32.4367631,21.0871475 L29.9279312,21.0871475 L29.9279312,4.82129333 L32.3563303,4.82129333 L32.3563303,6.85419772 L32.4024732,6.85419772 C33.2027676,5.47213774 34.69805,4.64193706 36.2942675,4.69342175 C39.3963955,4.69342175 41.4411663,7.14555378 41.4411663,10.933196 Z M38.8624722,10.933196 C38.8624722,8.45865401 37.5836484,6.8317878 35.6324862,6.8317878 C33.7156004,6.8317878 32.4262466,8.4929169 32.4262466,10.933196 C32.4262466,13.395885 33.7156004,15.0451476 35.6324862,15.0451476 C37.5836619,15.0451476 38.8624722,13.4301614 38.8624722,10.933196 L38.8624722,10.933196 Z" id="Shape"></path><path d="M50.3321564,12.3728313 C50.5180508,14.0352834 52.1330506,15.1268223 54.3399559,15.1268223 C56.4546025,15.1268223 57.9759801,14.0352294 57.9759801,12.5362483 C57.9759801,11.235028 57.0584016,10.455905 54.8857591,9.92195475 L52.7131167,9.39856145 C49.6347622,8.65501087 48.2056568,7.21536205 48.2056568,4.87923514 C48.2056568,1.98676154 50.7263551,0 54.3056795,0 C57.848068,0 60.2765076,1.98676154 60.3582498,4.87923514 L57.8256581,4.87923514 C57.6740536,3.20623958 56.2910911,2.19638886 54.2700531,2.19638886 C52.2490152,2.19638886 50.8660662,3.21811954 50.8660662,4.70522071 C50.8660662,5.89042236 51.7493683,6.58783009 53.9101443,7.12171285 L55.7571543,7.57523038 C59.1967406,8.38865674 60.625846,9.77032325 60.625846,12.2224283 C60.625846,15.3587921 58.1275576,17.3231437 54.1540345,17.3231437 C50.4362681,17.3231437 47.9261267,15.4049349 47.7639653,12.3727098 L50.3321564,12.3728313 Z" id="Path"></path><path d="M66.0403544,1.92881973 L66.0403544,4.82129333 L68.3646148,4.82129333 L68.3646148,6.80805487 L66.0403544,6.80805487 L66.0403544,13.5461665 C66.0403544,14.5929396 66.5057384,15.0807335 67.5274555,15.0807335 C67.8033831,15.075922 68.0788641,15.0565451 68.3527484,15.0226837 L68.3527484,16.9975788 C67.8933831,17.0834109 67.426477,17.1222839 66.9592424,17.1135974 C64.4847004,17.1135974 63.5196561,16.1841524 63.5196561,13.8137491 L63.5196561,6.80805487 L61.7425218,6.80805487 L61.7425218,4.82129333 L63.5196291,4.82129333 L63.5196291,1.92881973 L66.0403544,1.92881973 Z" id="Path"></path><path d="M69.7107089,10.933196 C69.7107089,7.08755797 71.9756371,4.67101182 75.5075226,4.67101182 C79.0512611,4.67101182 81.3056458,7.08750397 81.3056458,10.933196 C81.3056458,14.7893909 79.0631275,17.1953801 75.5075226,17.1953801 C71.9531732,17.1953801 69.7107089,14.7893774 69.7107089,10.933196 Z M78.7493481,10.933196 C78.7493481,8.29516954 77.5404135,6.7381926 75.5075091,6.7381926 C73.4746047,6.7381926 72.2669931,8.307036 72.2669931,10.933196 C72.2669931,13.5817659 73.4746047,15.1268898 75.5075091,15.1268898 C77.5404135,15.1268898 78.7493481,13.5817659 78.7493481,10.933196 L78.7493481,10.933196 Z" id="Shape"></path><path d="M83.374082,4.82129333 L85.7669088,4.82129333 L85.7669088,6.90163657 L85.8249586,6.90163657 C86.1586451,5.56242527 87.3857324,4.64073352 88.7648845,4.69339475 C89.054005,4.69238526 89.3423278,4.72378416 89.6244537,4.78700344 L89.6244537,7.13367382 C89.2594567,7.02214166 88.8787021,6.97093359 88.4972074,6.98206931 C87.7596349,6.95214725 87.0458283,7.24609433 86.5432122,7.78672876 C86.0405961,8.32736318 85.799385,9.06067205 85.8829139,9.79411017 L85.8829139,17.0437486 L83.374082,17.0437486 L83.374082,4.82129333 Z" id="Path"></path><path d="M101.191662,13.4538808 C100.854163,15.6726661 98.6933732,17.1953666 95.9287847,17.1953666 C92.3731798,17.1953666 90.166261,14.8130969 90.166261,10.9911918 C90.166261,7.15742024 92.3850462,4.67099832 95.8233231,4.67099832 C99.2049001,4.67099832 101.331413,6.99393577 101.331413,10.6998357 L101.331413,11.5594049 L92.6988257,11.5594049 L92.6988257,11.7110094 C92.6182275,12.6209492 92.9324311,13.5216633 93.5615133,14.1840393 C94.1905955,14.8464153 95.0739236,15.2066115 95.9868075,15.1730057 C97.2042906,15.2870798 98.352139,14.5879684 98.8094054,13.4538673 L101.191662,13.4538808 Z M92.7106684,9.80600363 L98.8212583,9.80600363 C98.8667876,8.9883484 98.5691554,8.18878055 98.0000696,7.59992389 C97.4309837,7.01106723 96.6420425,6.68631282 95.8233231,6.70390271 C94.9981272,6.69897824 94.2051518,7.02388492 93.6206507,7.60640616 C93.0361496,8.1889274 92.7085542,8.98079575 92.7106684,9.80600363 L92.7106684,9.80600363 Z" id="Shape"></path></g></g></g><g id="_Group_4" transform="translate(48.155585, 11.390088)" fill="#FFFFFF"><g id="Group" transform="translate(0.000000, 0.000000)"><path d="M2.90960504,0.39689871 C3.97467943,0.320467603 5.01789625,0.72568667 5.75211705,1.50102208 C6.48633785,2.27635748 6.83417172,3.34008461 6.69987973,4.3994197 C6.69987973,6.97284884 5.30901975,8.45210653 2.90960504,8.45210653 L9.59229576e-15,8.45210653 L9.59229576e-15,0.39689871 L2.90960504,0.39689871 Z M1.25110843,7.31292623 L2.7698535,7.31292623 C3.53101065,7.35842379 4.27215092,7.05853172 4.78748743,6.4965188 C5.30282395,5.93450589 5.53749248,5.17020566 5.42633436,4.41583565 C5.5294052,3.66459621 5.29135719,2.90660294 4.77729843,2.34917324 C4.26323966,1.79174353 3.52696569,1.49321165 2.7698535,1.53522851 L1.25110843,1.53522851 L1.25110843,7.31292623 Z" id="Shape"></path><path d="M8.11314963,5.40989142 C8.00891259,4.32028978 8.53138322,3.2657905 9.46143875,2.68864771 C10.3914943,2.11150492 11.5683308,2.11150492 12.4983864,2.68864771 C13.4284419,3.2657905 13.9509125,4.32028978 13.8466755,5.40989142 C13.9528958,6.50066393 13.430902,7.55720845 12.5000219,8.13559371 C11.5691417,8.71397898 10.3906835,8.71397898 9.45980327,8.13559371 C8.5289231,7.55720845 8.00692936,6.50066393 8.11314963,5.40989142 Z M12.6126985,5.40989142 C12.6126985,4.0922012 12.0207389,3.3216237 10.9818903,3.3216237 C9.9390727,3.3216237 9.3524456,4.0922012 9.3524456,5.40990492 C9.3524456,6.7381521 9.9391132,7.50278962 10.9818903,7.50278962 C12.0207659,7.50278962 12.6126985,6.73286012 12.6126985,5.40989142 L12.6126985,5.40989142 Z" id="Shape"></path><polygon id="Path" points="21.4680892 8.45198503 20.2235688 8.45198503 18.9671819 3.97484608 18.8722637 3.97484608 17.6211417 8.45198503 16.3884742 8.45198503 14.7128462 2.37304929 15.9296917 2.37304929 17.0186522 7.01163421 17.1083054 7.01163421 18.3581043 2.37304929 19.5090296 2.37304929 20.7588285 7.01163421 20.8537467 7.01163421 21.9374287 2.37304929 23.1371293 2.37304929"></polygon><path d="M24.5464437,2.37304929 L25.7013245,2.37304929 L25.7013245,3.33874165 L25.7909777,3.33874165 C26.1027387,2.62773668 26.8312342,2.19280796 27.6050343,2.25570767 C28.204185,2.21066071 28.7913103,2.44050844 29.2006356,2.88035343 C29.6099609,3.32019843 29.7970668,3.92230933 29.7091239,4.51668032 L29.7091239,8.45191753 L28.5094233,8.45191753 L28.5094233,4.81794534 C28.5094233,3.84104802 28.0849172,3.3552251 27.1976596,3.3552251 C26.7912648,3.33629697 26.3968694,3.49579011 26.1178718,3.79189033 C25.8388742,4.08799056 25.7030998,4.49116677 25.7461443,4.89571859 L25.7461443,8.45198503 L24.5464437,8.45198503 L24.5464437,2.37304929 Z" id="Path"></path><polygon id="Path" points="31.6207447 0 32.8204453 0 32.8204453 8.45197153 31.6207447 8.45197153"></polygon><path d="M34.4881624,5.40989142 C34.3840054,4.32021849 34.9065585,3.26569253 35.836683,2.68854084 C36.7668076,2.11138914 37.9437046,2.11138914 38.8738292,2.68854084 C39.8039537,3.26569253 40.3265068,4.32021849 40.2223498,5.40989142 C40.3284351,6.50070298 39.8063458,7.55721765 38.8754194,8.13557743 C37.944493,8.71393722 36.7660192,8.71393722 35.8350928,8.13557743 C34.9041664,7.55721765 34.382077,6.50070298 34.4881624,5.40989142 L34.4881624,5.40989142 Z M38.9877113,5.40989142 C38.9877113,4.0922012 38.3957517,3.3216237 37.3569031,3.3216237 C36.3140855,3.3216237 35.7274584,4.0922012 35.7274584,5.40990492 C35.7274584,6.7381521 36.314126,7.50278962 37.3569031,7.50278962 C38.3957652,7.50278962 38.9877113,6.73286012 38.9877113,5.40989142 L38.9877113,5.40989142 Z" id="Shape"></path><path d="M41.4853382,6.73286012 C41.4853382,5.63862117 42.3000875,5.00779522 43.7463108,4.91814202 L45.392941,4.82322382 L45.392941,4.29852103 C45.392941,3.65647662 44.9684349,3.29393529 44.1484205,3.29393529 C43.4787012,3.29393529 43.0146402,3.53981 42.8814766,3.9695946 L41.7200079,3.9695946 C41.8426145,2.92545399 42.8247903,2.25573467 44.2037838,2.25573467 C45.7278074,2.25573467 46.5873766,3.0144322 46.5873766,4.29852103 L46.5873766,8.45199853 L45.4324958,8.45199853 L45.4324958,7.59770781 L45.3375777,7.59770781 C44.9453345,8.22157633 44.2477986,8.58619246 43.5116546,8.55215471 C42.9956,8.60583298 42.480921,8.43870197 42.0948555,8.0920795 C41.7087901,7.74545704 41.4873714,7.2516949 41.4853382,6.73286012 L41.4853382,6.73286012 Z M45.392941,6.21342231 L45.392941,5.70520296 L43.9084723,5.80012115 C43.071313,5.85614597 42.6916268,6.14091404 42.6916268,6.6768218 C42.6916268,7.22393452 43.1662312,7.54231749 43.8188731,7.54231749 C44.205223,7.58142668 44.5909037,7.46206707 44.8876246,7.21156261 C45.1843456,6.96105815 45.3666992,6.60085897 45.392941,6.21342231 Z" id="Shape"></path><path d="M48.1641175,5.40989142 C48.1641175,3.48905016 49.1515718,2.27220462 50.6874483,2.27220462 C51.4629894,2.23647041 52.1893556,2.65202975 52.5516032,3.33870115 L52.6412564,3.33870115 L52.6412564,0 L53.840957,0 L53.840957,8.45197153 L52.6913548,8.45197153 L52.6913548,7.49154415 L52.5964366,7.49154415 C52.2068065,8.17251837 51.4714913,8.58105335 50.6874618,8.55215471 C49.1410283,8.55222221 48.1641175,7.33534966 48.1641175,5.40989142 Z M49.4034134,5.40989142 C49.4034134,6.69924523 50.0111815,7.47510121 51.0276337,7.47510121 C52.0387804,7.47510121 52.6637068,6.68805376 52.6637068,5.4151699 C52.6637068,4.14822602 52.0322194,3.34996011 51.0276337,3.34996011 C50.0177289,3.34996011 49.4033729,4.13108107 49.4033729,5.40989142 L49.4034134,5.40989142 Z" id="Shape"></path><path d="M58.8045669,5.40989142 C58.7003298,4.32028978 59.2228005,3.2657905 60.152856,2.68864771 C61.0829115,2.11150492 62.2597481,2.11150492 63.1898036,2.68864771 C64.1198592,3.2657905 64.6423298,4.32028978 64.5380928,5.40989142 C64.644313,6.50066393 64.1223193,7.55720845 63.1914391,8.13559371 C62.2605589,8.71397898 61.0821007,8.71397898 60.1512205,8.13559371 C59.2203403,7.55720845 58.6983466,6.50066393 58.8045669,5.40989142 L58.8045669,5.40989142 Z M63.3041023,5.40989142 C63.3041023,4.0922012 62.7121562,3.3216237 61.6733076,3.3216237 C60.63049,3.3216237 60.0438629,4.0922012 60.0438629,5.40990492 C60.0438629,6.7381521 60.6305305,7.50278962 61.6733076,7.50278962 C62.7121697,7.50278962 63.3041023,6.73286012 63.3041023,5.40989142 Z" id="Shape"></path><path d="M66.1478005,2.37304929 L67.3026813,2.37304929 L67.3026813,3.33874165 L67.3923345,3.33874165 C67.7040955,2.62773668 68.4325909,2.19280796 69.2063911,2.25570767 C69.8055418,2.21066071 70.3926671,2.44050844 70.8019924,2.88035343 C71.2113177,3.32019843 71.3984236,3.92230933 71.3104807,4.51668032 L71.3104807,8.45191753 L70.1107801,8.45191753 L70.1107801,4.81794534 C70.1107801,3.84104802 69.686274,3.3552251 68.7990164,3.3552251 C68.3926216,3.33629697 67.9982262,3.49579011 67.7192286,3.79189033 C67.440231,4.08799056 67.3044566,4.49116677 67.3475011,4.89571859 L67.3475011,8.45198503 L66.1478005,8.45198503 L66.1478005,2.37304929 Z" id="Path"></path><path d="M78.0894702,0.859582706 L78.0894702,2.4007377 L79.4065124,2.4007377 L79.4065124,3.41126341 L78.0894702,3.41126341 L78.0894702,6.53708375 C78.0894702,7.17384968 78.3518284,7.45267778 78.9490394,7.45267778 C79.1019339,7.45218846 79.254675,7.44294385 79.4065124,7.42498937 L79.4065124,8.42429662 C79.191066,8.46283997 78.9727799,8.48334549 78.7539245,8.48559992 C77.4197509,8.48559992 76.8884466,8.01626045 76.8884466,6.84424826 L76.8884466,3.41120941 L75.9234157,3.41120941 L75.9234157,2.4006837 L76.8884466,2.4006837 L76.8884466,0.859582706 L78.0894702,0.859582706 Z" id="Path"></path><path d="M81.0452181,0 L82.2343752,0 L82.2343752,3.34994661 L82.3292934,3.34994661 C82.6560299,2.632719 83.3972751,2.19723604 84.1828374,2.26098615 C84.7785859,2.22856909 85.3577633,2.46347701 85.7626148,2.90172627 C86.1674662,3.33997554 86.355824,3.93591982 86.2763836,4.52723729 L86.2763836,8.45198503 L85.0754815,8.45198503 L85.0754815,4.82319682 C85.0754815,3.85222598 84.623233,3.36047658 83.7755842,3.36047658 C83.3582047,3.32624564 82.9469962,3.47798149 82.6518915,3.77511896 C82.3567869,4.07225643 82.2078774,4.48449684 82.2449727,4.90163157 L82.2449727,8.45198503 L81.0452721,8.45198503 L81.0452181,0 Z" id="Path"></path><path d="M93.2716424,6.81063337 C92.935233,7.95729194 91.8255931,8.69816083 90.6375714,8.56931315 C89.8269854,8.59071085 89.047967,8.25472461 88.5072085,7.6504996 C87.96645,7.0462746 87.7186195,6.23489525 87.8294726,5.43163985 C87.7215639,4.62615211 87.9684657,3.81347265 88.506213,3.20414298 C89.0439603,2.59481331 89.8196388,2.24879131 90.6322929,2.25572117 C92.3237429,2.25572117 93.3441506,3.41131741 93.3441506,5.32021121 L93.3441506,5.73883135 L89.0515831,5.73883135 L89.0515831,5.80606113 C89.0135969,6.25714886 89.1676567,6.70333268 89.4758743,7.03488208 C89.7840918,7.36643149 90.2178684,7.55258275 90.6705248,7.54755547 C91.2574649,7.61801806 91.828811,7.3268758 92.1167616,6.81059287 L93.2716424,6.81063337 Z M89.0515561,4.85156023 L92.1219996,4.85156023 C92.1525809,4.43900216 92.0075179,4.03271374 91.7225588,3.73281764 C91.4375996,3.43292155 91.0392457,3.26730829 90.6256645,3.27679035 C90.20648,3.2715239 89.8029339,3.4357675 89.5065672,3.73226386 C89.2102004,4.02876022 89.0461333,4.43237814 89.0515831,4.85156023 L89.0515561,4.85156023 Z" id="Shape"></path></g></g></g></g></svg>